<?xml version="1.0" standalone="no"?>
<svg xmlns:xlink="http://www.w3.org/1999/xlink" id="wave" style="transform:rotate(0deg); transition: 0.3s" viewBox="0 0 1440 490" version="1.1" xmlns="http://www.w3.org/2000/svg"><defs><linearGradient id="sw-gradient-0" x1="0" x2="0" y1="1" y2="0"><stop stop-color="rgba(141, 15, 76, 1)" offset="0%"/><stop stop-color="rgba(141, 15, 76, 1)" offset="100%"/></linearGradient></defs><path style="transform:translate(0, 0px); opacity:1" fill="url(#sw-gradient-0)" d="M0,0L720,294L1440,98L2160,441L2880,392L3600,294L4320,245L5040,147L5760,441L6480,294L7200,98L7920,0L8640,441L9360,294L10080,343L10800,392L11520,392L12240,294L12960,196L13680,294L14400,98L15120,245L15840,147L16560,441L17280,196L17280,490L16560,490L15840,490L15120,490L14400,490L13680,490L12960,490L12240,490L11520,490L10800,490L10080,490L9360,490L8640,490L7920,490L7200,490L6480,490L5760,490L5040,490L4320,490L3600,490L2880,490L2160,490L1440,490L720,490L0,490Z"/></svg>