<?xml version="1.0" standalone="no"?>
<svg xmlns:xlink="http://www.w3.org/1999/xlink" id="wave" style="transform:rotate(0deg); transition: 0.3s" viewBox="0 0 1440 320" version="1.1" xmlns="http://www.w3.org/2000/svg"><defs><linearGradient id="sw-gradient-0" x1="0" x2="0" y1="1" y2="0"><stop stop-color="rgba(199, 37, 113, 1)" offset="0%"/><stop stop-color="rgba(141, 15, 76, 1)" offset="100%"/></linearGradient></defs><path style="transform:translate(0, 0px); opacity:1" fill="url(#sw-gradient-0)" d="M0,0L720,192L1440,64L2160,288L2880,256L3600,192L4320,160L5040,96L5760,288L6480,192L7200,64L7920,0L8640,288L9360,192L10080,224L10800,256L11520,256L12240,192L12960,128L13680,192L14400,64L15120,160L15840,96L16560,288L17280,128L17280,320L16560,320L15840,320L15120,320L14400,320L13680,320L12960,320L12240,320L11520,320L10800,320L10080,320L9360,320L8640,320L7920,320L7200,320L6480,320L5760,320L5040,320L4320,320L3600,320L2880,320L2160,320L1440,320L720,320L0,320Z"/></svg>